<svg xmlns="http://www.w3.org/2000/svg" width="45" height="45" viewBox="0 0 45 45">
  <g id="Group_2436" data-name="Group 2436" transform="translate(-893 -173)">
    <circle id="Ellipse_41" data-name="Ellipse 41" cx="22.5" cy="22.5" r="22.5" transform="translate(893 173)" fill="#122a3c"/>
    <g id="hourglass" transform="translate(845.144 185.682)">
      <g id="Group_2341" data-name="Group 2341" transform="translate(63.123)">
        <path id="Path_703" data-name="Path 703" d="M77.183,18.559V16.511c0-2.412-1.864-3.855-3.656-5.263a1.417,1.417,0,0,1-.562-1.125,1.9,1.9,0,0,1,.562-1.345c1.743-1.467,3.656-2.851,3.656-5.263V1.968h1.406V0H63.123V1.968h1.406V3.515c0,2.412,1.912,3.8,3.656,5.263a1.9,1.9,0,0,1,.562,1.345,1.417,1.417,0,0,1-.562,1.125c-1.792,1.408-3.656,2.851-3.656,5.263v2.048H63.123v1.968H78.589V18.559ZM67.305,5.343A2.7,2.7,0,0,1,66.5,3.515V1.968h8.717V3.515a2.7,2.7,0,0,1-.808,1.828h-7.1ZM75.215,18.01,71.9,16.718a3.338,3.338,0,0,0-2.1,0L66.5,18.011v-1.5c0-1.365,1.085-2.287,2.855-3.678L69.4,12.8a3.4,3.4,0,0,0,1.256-2.07.919.919,0,0,0,.4,0A3.4,3.4,0,0,0,72.311,12.8l.048.038c1.77,1.391,2.855,2.312,2.855,3.677v1.5Z" transform="translate(-63.123)" fill="#fff"/>
      </g>
    </g>
  </g>
</svg>
