<svg xmlns="http://www.w3.org/2000/svg" width="117.859" height="52" viewBox="0 0 117.859 52">
  <g id="Group_11537" data-name="Group 11537" transform="translate(-285.5 -2863)">
    <path id="Icon_awesome-cloud" data-name="Icon awesome-cloud" d="M27.6,12.241a4.934,4.934,0,0,0-4.6-6.7,4.9,4.9,0,0,0-2.736.832,8.215,8.215,0,0,0-15.335,4.1c0,.139.005.277.01.416A7.395,7.395,0,0,0,7.393,25.25H26.286A6.571,6.571,0,0,0,27.6,12.241Z" transform="translate(285.5 2860.75)" fill="#e5f2eb"/>
    <path id="Icon_awesome-cloud-2" data-name="Icon awesome-cloud" d="M16.08,8.071A2.875,2.875,0,0,0,13.4,4.164a2.857,2.857,0,0,0-1.594.485A4.786,4.786,0,0,0,2.871,7.036c0,.081,0,.162.006.242a4.308,4.308,0,0,0,1.43,8.372H15.314a3.828,3.828,0,0,0,.766-7.579Z" transform="translate(325 2899.35)" fill="#e5f2eb"/>
    <path id="Icon_awesome-cloud-3" data-name="Icon awesome-cloud" d="M13.2,7.028A2.36,2.36,0,0,0,11,3.821a2.345,2.345,0,0,0-1.309.4A3.929,3.929,0,0,0,2.357,6.179c0,.066,0,.133,0,.2A3.537,3.537,0,0,0,3.536,13.25h9.036A3.143,3.143,0,0,0,13.2,7.028Z" transform="translate(387.644 2878.25)" fill="#e5f2eb"/>
    <path id="Path_723" data-name="Path 723" d="M118.679,178.674H106.648a3.982,3.982,0,0,1-3.835-2.851l-2.944-9.747L97.2,160.743a1.329,1.329,0,0,0-1.189-.736h-4a1.343,1.343,0,0,0-.944.389l-4.941,4.944H65.346a1.334,1.334,0,0,0-1.333,1.333v2.667a1.334,1.334,0,0,0,1.115,1.315c4.885.816,13.2,2.819,15.112,4.784l.085.165c2.52,4.933,5.659,11.069,11.688,11.069H110.68c5.32,0,9.333-2.867,9.333-6.667A1.334,1.334,0,0,0,118.679,178.674Z" transform="translate(264.989 2719.993)" fill="#2962ff"/>
  </g>
</svg>
