<svg xmlns="http://www.w3.org/2000/svg" width="73.663" height="45" viewBox="0 0 73.663 45">
  <path id="Path_749" data-name="Path 749" d="M51.393,77.993a19.748,19.748,0,0,0-1.574-2.88l7.536-.685a2.318,2.318,0,0,0-.21-4.627H44.138a11.988,11.988,0,0,0-1.421-.628L41.475,57.638a2.7,2.7,0,0,0-5.384-.012L34.836,69.29a12.074,12.074,0,0,0-1.116.511H21.3a2.318,2.318,0,0,0-.21,4.627l6.985.635a19.736,19.736,0,0,0-1.585,2.878L2.024,82.861v4.532H16.347v.744A4.385,4.385,0,1,0,18.54,88.1v-.706h6.171A13.154,13.154,0,0,0,28.9,96.7a14.713,14.713,0,0,0,10.033,3.49A14.714,14.714,0,0,0,48.962,96.7a13.153,13.153,0,0,0,4.185-9.308h6.317v.744a4.385,4.385,0,1,0,2.192-.038v-.706H75.687V82.861ZM19.709,92.363a2.192,2.192,0,1,1-2.192-2.192A2.195,2.195,0,0,1,19.709,92.363Zm43.116,0a2.192,2.192,0,1,1-2.192-2.192A2.195,2.195,0,0,1,62.825,92.363Zm-5.68-20.369a.126.126,0,0,1,.011.252l-8.92.811q-.5-.564-1.035-1.063ZM38.272,57.848a.513.513,0,0,1,1.022.012L40.451,68.6a10.854,10.854,0,0,0-1.226-.1l-.1,0c-.065,0-.131,0-.2,0l-.1,0-.121,0q-.148,0-.3.01l-.09,0a10.857,10.857,0,0,0-1.216.136ZM21.17,72.12a.126.126,0,0,1,.126-.126h9.358q-.509.476-.99,1.013l-8.379-.762A.125.125,0,0,1,21.17,72.12ZM4.216,84.657l21.364-4.3c-.009.031-.017.062-.027.092q-.064.212-.123.426c-.01.036-.02.072-.03.107q-.072.263-.136.529c-.009.035-.017.07-.025.105q-.06.25-.113.5l-.011.052q-.059.281-.11.564l-.013.072q-.048.271-.089.543l0,.029q-.043.288-.077.576c0,.023-.005.045-.008.068q-.031.266-.055.532l0,.05q-.024.281-.041.562c0,.011,0,.022,0,.032H4.216ZM38.929,98C33.1,98,26.876,94.932,26.871,86.322V86.3c0-.212.005-.423.013-.635,0-.052,0-.1.006-.156q.014-.3.038-.6c0-.062.011-.124.016-.185q.021-.238.05-.476c.009-.079.019-.159.029-.238q.031-.24.07-.48c.014-.089.028-.178.044-.267q.044-.254.094-.506c.02-.1.041-.194.062-.29s.046-.2.07-.306q.05-.214.106-.426c.03-.114.06-.228.092-.341s.061-.212.092-.317.061-.2.092-.295q.075-.236.156-.469.046-.132.094-.264c.038-.1.076-.208.116-.311q.089-.231.184-.46l.062-.15a17.307,17.307,0,0,1,2.142-3.7q.2-.258.4-.5l.064-.076a12.7,12.7,0,0,1,3.576-3l.293-.161a9.681,9.681,0,0,1,1.408-.581h.005l.156-.047a8.6,8.6,0,0,1,4.991-.019l.225.067a9.686,9.686,0,0,1,1.408.581l.293.161A12.721,12.721,0,0,1,46.934,74.9l.009.011q.211.254.416.522a17.319,17.319,0,0,1,2.154,3.727l.031.075c.063.151.123.3.183.456q.07.179.135.36.055.15.107.3c.038.111.076.222.112.334q.068.21.132.422.044.149.086.3c.032.114.062.228.092.342q.054.207.1.415.038.163.074.325c.021.095.041.189.06.284q.051.253.094.507c.015.087.029.174.043.262q.036.228.066.457.016.124.031.249.029.242.05.485c.006.062.012.125.017.187q.024.3.037.6c0,.051,0,.1.006.153.008.212.013.424.013.636v.018C50.981,94.932,44.755,98,38.929,98ZM73.495,85.2H53.147c0-.011,0-.022,0-.033q-.016-.279-.04-.558l0-.044q-.024-.265-.054-.53c0-.023-.005-.047-.008-.07q-.034-.288-.076-.574v-.005c-.027-.185-.058-.369-.09-.553l-.014-.079q-.051-.282-.109-.562l0-.018q-.055-.26-.116-.518l-.028-.12c-.042-.175-.087-.35-.134-.523l-.022-.079q-.06-.218-.125-.435c-.009-.03-.017-.061-.026-.091l21.2,4.248V85.2Z" transform="translate(-2.024 -55.192)" fill="#2962ff"/>
</svg>
