<svg xmlns="http://www.w3.org/2000/svg" width="45" height="45" viewBox="0 0 45 45">
  <g id="Group_2339" data-name="Group 2339" transform="translate(-585 -565)">
    <circle id="Ellipse_41" data-name="Ellipse 41" cx="22.5" cy="22.5" r="22.5" transform="translate(585 565)" fill="#122a3c"/>
    <path id="Icon_awesome-google-play" data-name="Icon awesome-google-play" d="M13.481,9.139,4.872.507,15.825,6.8,13.481,9.139ZM2.625,0a1.516,1.516,0,0,0-.846,1.377V18.591a1.516,1.516,0,0,0,.846,1.377L12.635,9.982ZM19.211,8.8l-2.3-1.33L14.351,9.986,16.914,12.5l2.344-1.33A1.565,1.565,0,0,0,19.211,8.8ZM4.872,19.465l10.953-6.288-2.344-2.344Z" transform="translate(599.221 577.5)" fill="#fff"/>
  </g>
</svg>
