<svg xmlns="http://www.w3.org/2000/svg" width="25.279" height="25.279" viewBox="0 0 25.279 25.279">
  <g id="Polygon_1" data-name="Polygon 1" transform="translate(11.844 2.828) rotate(45)" fill="none" stroke-linecap="round" stroke-linejoin="round">
    <path d="M7.5,0,15,12.75H0Z" stroke="none"/>
    <path d="M 7.500000476837158 0 L 9.5367431640625e-07 12.75 L 15 12.75 L 7.500000476837158 0 M 7.500000476837158 -2 C 8.208730697631836 -2 8.864530563354492 -1.624919891357422 9.223870277404785 -1.014039993286133 L 16.7238712310791 11.73596000671387 C 17.08761978149414 12.35433959960938 17.0922908782959 13.12018966674805 16.7361011505127 13.74295997619629 C 16.37990951538086 14.36571979522705 15.71743011474609 14.75 15 14.75 L 9.5367431640625e-07 14.75 C -0.7174291610717773 14.75 -1.379910469055176 14.36571979522705 -1.736100196838379 13.74295997619629 C -2.092289924621582 13.12018966674805 -2.087618827819824 12.35433959960938 -1.723870277404785 11.73596000671387 L 5.776130676269531 -1.014039993286133 C 6.135470390319824 -1.624919891357422 6.79127025604248 -2 7.500000476837158 -2 Z" stroke="none" fill="#1fc1c3"/>
  </g>
</svg>
