<svg xmlns="http://www.w3.org/2000/svg" width="58.8" height="55.889" viewBox="0 0 58.8 55.889">
  <g id="Group_2349" data-name="Group 2349" transform="translate(-97.9 -1005.6)">
    <path id="Path_706" data-name="Path 706" d="M28.866,59.489C45.435,59.489,61.7,43.268,61.7,26.7a17.79,17.79,0,0,0-5.826-13.2C48.78,6.6,35.633,3.6,24.4,3.6,7.831,3.6,2.9,14.931,2.9,31.5S12.3,59.489,28.866,59.489Z" transform="translate(95 1002)" fill="#fed4c4"/>
    <path id="Icon_awesome-user" data-name="Icon awesome-user" d="M10,10.412a5.714,5.714,0,1,0-5.714-5.7A5.714,5.714,0,0,0,10,10.412Zm4,2.445h-.746a7.771,7.771,0,0,1-6.509,0H6a6,6,0,0,0-6,6v1.857a2.143,2.143,0,0,0,2.143,2.143H17.857A2.143,2.143,0,0,0,20,20.714V18.857A6,6,0,0,0,14,12.857Z" transform="translate(117 1020.5)" fill="none" stroke="#122a3c" stroke-width="2"/>
  </g>
</svg>
